<?xml version="1.0" encoding="UTF-8" standalone="no"?>
<!DOCTYPE svg PUBLIC "-//W3C//DTD SVG 1.1//EN"
 "http://www.w3.org/Graphics/SVG/1.1/DTD/svg11.dtd">
<!-- Generated by graphviz version 2.40.1 (20161225.0304)
 -->
<!-- Title: BinarySearchTree Pages: 1 -->
<svg width="325pt" height="300pt"
 viewBox="0.00 0.00 325.00 299.60" xmlns="http://www.w3.org/2000/svg" xmlns:xlink="http://www.w3.org/1999/xlink">
<g id="graph0" class="graph" transform="scale(1 1) rotate(0) translate(4 295.6)">
<title>BinarySearchTree</title>
<polygon fill="#ffffff" stroke="transparent" points="-4,4 -4,-295.6 321,-295.6 321,4 -4,4"/>
<!-- 3 -->
<g id="node1" class="node">
<title>3</title>
<ellipse fill="none" stroke="#000000" cx="110" cy="-273.6" rx="27" ry="18"/>
<text text-anchor="middle" x="110" y="-269.9" font-family="Times,serif" font-size="14.00" fill="#000000">3</text>
</g>
<!-- 2 -->
<g id="node2" class="node">
<title>2</title>
<ellipse fill="none" stroke="#000000" cx="74" cy="-201.6" rx="27" ry="18"/>
<text text-anchor="middle" x="74" y="-197.9" font-family="Times,serif" font-size="14.00" fill="#000000">2</text>
</g>
<!-- 3&#45;&gt;2 -->
<g id="edge1" class="edge">
<title>3&#45;&gt;2</title>
<path fill="none" stroke="#000000" d="M101.2854,-256.1708C97.0403,-247.6807 91.8464,-237.2929 87.1337,-227.8674"/>
<polygon fill="#000000" stroke="#000000" points="90.237,-226.2477 82.6343,-218.8687 83.976,-229.3782 90.237,-226.2477"/>
</g>
<!-- 45 -->
<g id="node3" class="node">
<title>45</title>
<ellipse fill="none" stroke="#000000" cx="146" cy="-201.6" rx="27" ry="18"/>
<text text-anchor="middle" x="146" y="-197.9" font-family="Times,serif" font-size="14.00" fill="#000000">45</text>
</g>
<!-- 3&#45;&gt;45 -->
<g id="edge2" class="edge">
<title>3&#45;&gt;45</title>
<path fill="none" stroke="#000000" d="M118.7146,-256.1708C122.9597,-247.6807 128.1536,-237.2929 132.8663,-227.8674"/>
<polygon fill="#000000" stroke="#000000" points="136.024,-229.3782 137.3657,-218.8687 129.763,-226.2477 136.024,-229.3782"/>
</g>
<!-- 1 -->
<g id="node4" class="node">
<title>1</title>
<ellipse fill="none" stroke="#000000" cx="27" cy="-129.6" rx="27" ry="18"/>
<text text-anchor="middle" x="27" y="-125.9" font-family="Times,serif" font-size="14.00" fill="#000000">1</text>
</g>
<!-- 2&#45;&gt;1 -->
<g id="edge3" class="edge">
<title>2&#45;&gt;1</title>
<path fill="none" stroke="#000000" d="M63.0991,-184.9008C57.2264,-175.9043 49.8634,-164.6247 43.3213,-154.6029"/>
<polygon fill="#000000" stroke="#000000" points="46.2389,-152.6693 37.8418,-146.2087 40.3772,-156.4957 46.2389,-152.6693"/>
</g>
<!-- null54 -->
<g id="node5" class="node">
<title>null54</title>
<ellipse fill="#000000" stroke="#000000" cx="74" cy="-129.6" rx="1.8" ry="1.8"/>
</g>
<!-- 2&#45;&gt;null54 -->
<g id="edge4" class="edge">
<title>2&#45;&gt;null54</title>
<path fill="none" stroke="#000000" d="M74,-183.4314C74,-170.2567 74,-152.8195 74,-141.4119"/>
<polygon fill="#000000" stroke="#000000" points="77.5001,-141.4067 74,-131.4068 70.5001,-141.4068 77.5001,-141.4067"/>
</g>
<!-- 30 -->
<g id="node8" class="node">
<title>30</title>
<ellipse fill="none" stroke="#000000" cx="146" cy="-129.6" rx="27" ry="18"/>
<text text-anchor="middle" x="146" y="-125.9" font-family="Times,serif" font-size="14.00" fill="#000000">30</text>
</g>
<!-- 45&#45;&gt;30 -->
<g id="edge7" class="edge">
<title>45&#45;&gt;30</title>
<path fill="none" stroke="#000000" d="M146,-183.4314C146,-175.731 146,-166.5743 146,-158.0166"/>
<polygon fill="#000000" stroke="#000000" points="149.5001,-158.0132 146,-148.0133 142.5001,-158.0133 149.5001,-158.0132"/>
</g>
<!-- 78 -->
<g id="node9" class="node">
<title>78</title>
<ellipse fill="none" stroke="#000000" cx="218" cy="-129.6" rx="27" ry="18"/>
<text text-anchor="middle" x="218" y="-125.9" font-family="Times,serif" font-size="14.00" fill="#000000">78</text>
</g>
<!-- 45&#45;&gt;78 -->
<g id="edge8" class="edge">
<title>45&#45;&gt;78</title>
<path fill="none" stroke="#000000" d="M161.2693,-186.3307C171.197,-176.403 184.3153,-163.2847 195.4363,-152.1637"/>
<polygon fill="#000000" stroke="#000000" points="198.1564,-154.3933 202.7527,-144.8473 193.2067,-149.4436 198.1564,-154.3933"/>
</g>
<!-- null55 -->
<g id="node6" class="node">
<title>null55</title>
<ellipse fill="#000000" stroke="#000000" cx="5" cy="-57.6" rx="1.8" ry="1.8"/>
</g>
<!-- 1&#45;&gt;null55 -->
<g id="edge5" class="edge">
<title>1&#45;&gt;null55</title>
<path fill="none" stroke="#000000" d="M21.5618,-111.8022C17.494,-98.4895 12.0492,-80.67 8.5328,-69.1618"/>
<polygon fill="#000000" stroke="#000000" points="11.8278,-67.9678 5.5583,-59.4271 5.1333,-70.0134 11.8278,-67.9678"/>
</g>
<!-- null56 -->
<g id="node7" class="node">
<title>null56</title>
<ellipse fill="#000000" stroke="#000000" cx="27" cy="-57.6" rx="1.8" ry="1.8"/>
</g>
<!-- 1&#45;&gt;null56 -->
<g id="edge6" class="edge">
<title>1&#45;&gt;null56</title>
<path fill="none" stroke="#000000" d="M27,-111.4314C27,-98.2567 27,-80.8195 27,-69.4119"/>
<polygon fill="#000000" stroke="#000000" points="30.5001,-69.4067 27,-59.4068 23.5001,-69.4068 30.5001,-69.4067"/>
</g>
<!-- 28 -->
<g id="node10" class="node">
<title>28</title>
<ellipse fill="none" stroke="#000000" cx="74" cy="-57.6" rx="27" ry="18"/>
<text text-anchor="middle" x="74" y="-53.9" font-family="Times,serif" font-size="14.00" fill="#000000">28</text>
</g>
<!-- 30&#45;&gt;28 -->
<g id="edge9" class="edge">
<title>30&#45;&gt;28</title>
<path fill="none" stroke="#000000" d="M130.7307,-114.3307C120.803,-104.403 107.6847,-91.2847 96.5637,-80.1637"/>
<polygon fill="#000000" stroke="#000000" points="98.7933,-77.4436 89.2473,-72.8473 93.8436,-82.3933 98.7933,-77.4436"/>
</g>
<!-- 37 -->
<g id="node11" class="node">
<title>37</title>
<ellipse fill="none" stroke="#000000" cx="146" cy="-57.6" rx="27" ry="18"/>
<text text-anchor="middle" x="146" y="-53.9" font-family="Times,serif" font-size="14.00" fill="#000000">37</text>
</g>
<!-- 30&#45;&gt;37 -->
<g id="edge10" class="edge">
<title>30&#45;&gt;37</title>
<path fill="none" stroke="#000000" d="M146,-111.4314C146,-103.731 146,-94.5743 146,-86.0166"/>
<polygon fill="#000000" stroke="#000000" points="149.5001,-86.0132 146,-76.0133 142.5001,-86.0133 149.5001,-86.0132"/>
</g>
<!-- 67 -->
<g id="node16" class="node">
<title>67</title>
<ellipse fill="none" stroke="#000000" cx="218" cy="-57.6" rx="27" ry="18"/>
<text text-anchor="middle" x="218" y="-53.9" font-family="Times,serif" font-size="14.00" fill="#000000">67</text>
</g>
<!-- 78&#45;&gt;67 -->
<g id="edge15" class="edge">
<title>78&#45;&gt;67</title>
<path fill="none" stroke="#000000" d="M218,-111.4314C218,-103.731 218,-94.5743 218,-86.0166"/>
<polygon fill="#000000" stroke="#000000" points="221.5001,-86.0132 218,-76.0133 214.5001,-86.0133 221.5001,-86.0132"/>
</g>
<!-- 123 -->
<g id="node17" class="node">
<title>123</title>
<ellipse fill="none" stroke="#000000" cx="290" cy="-57.6" rx="27" ry="18"/>
<text text-anchor="middle" x="290" y="-53.9" font-family="Times,serif" font-size="14.00" fill="#000000">123</text>
</g>
<!-- 78&#45;&gt;123 -->
<g id="edge16" class="edge">
<title>78&#45;&gt;123</title>
<path fill="none" stroke="#000000" d="M233.2693,-114.3307C243.197,-104.403 256.3153,-91.2847 267.4363,-80.1637"/>
<polygon fill="#000000" stroke="#000000" points="270.1564,-82.3933 274.7527,-72.8473 265.2067,-77.4436 270.1564,-82.3933"/>
</g>
<!-- null57 -->
<g id="node12" class="node">
<title>null57</title>
<ellipse fill="#000000" stroke="#000000" cx="63" cy="-1.8" rx="1.8" ry="1.8"/>
</g>
<!-- 28&#45;&gt;null57 -->
<g id="edge11" class="edge">
<title>28&#45;&gt;null57</title>
<path fill="none" stroke="#000000" d="M70.459,-39.6374C68.7738,-31.0891 66.8064,-21.1091 65.3154,-13.5455"/>
<polygon fill="#000000" stroke="#000000" points="68.7174,-12.7061 63.3493,-3.5719 61.8496,-14.06 68.7174,-12.7061"/>
</g>
<!-- null58 -->
<g id="node13" class="node">
<title>null58</title>
<ellipse fill="#000000" stroke="#000000" cx="85" cy="-1.8" rx="1.8" ry="1.8"/>
</g>
<!-- 28&#45;&gt;null58 -->
<g id="edge12" class="edge">
<title>28&#45;&gt;null58</title>
<path fill="none" stroke="#000000" d="M77.541,-39.6374C79.2262,-31.0891 81.1936,-21.1091 82.6846,-13.5455"/>
<polygon fill="#000000" stroke="#000000" points="86.1504,-14.06 84.6507,-3.5719 79.2826,-12.7061 86.1504,-14.06"/>
</g>
<!-- null59 -->
<g id="node14" class="node">
<title>null59</title>
<ellipse fill="#000000" stroke="#000000" cx="135" cy="-1.8" rx="1.8" ry="1.8"/>
</g>
<!-- 37&#45;&gt;null59 -->
<g id="edge13" class="edge">
<title>37&#45;&gt;null59</title>
<path fill="none" stroke="#000000" d="M142.459,-39.6374C140.7738,-31.0891 138.8064,-21.1091 137.3154,-13.5455"/>
<polygon fill="#000000" stroke="#000000" points="140.7174,-12.7061 135.3493,-3.5719 133.8496,-14.06 140.7174,-12.7061"/>
</g>
<!-- null60 -->
<g id="node15" class="node">
<title>null60</title>
<ellipse fill="#000000" stroke="#000000" cx="157" cy="-1.8" rx="1.8" ry="1.8"/>
</g>
<!-- 37&#45;&gt;null60 -->
<g id="edge14" class="edge">
<title>37&#45;&gt;null60</title>
<path fill="none" stroke="#000000" d="M149.541,-39.6374C151.2262,-31.0891 153.1936,-21.1091 154.6846,-13.5455"/>
<polygon fill="#000000" stroke="#000000" points="158.1504,-14.06 156.6507,-3.5719 151.2826,-12.7061 158.1504,-14.06"/>
</g>
<!-- null61 -->
<g id="node18" class="node">
<title>null61</title>
<ellipse fill="#000000" stroke="#000000" cx="207" cy="-1.8" rx="1.8" ry="1.8"/>
</g>
<!-- 67&#45;&gt;null61 -->
<g id="edge17" class="edge">
<title>67&#45;&gt;null61</title>
<path fill="none" stroke="#000000" d="M214.459,-39.6374C212.7738,-31.0891 210.8064,-21.1091 209.3154,-13.5455"/>
<polygon fill="#000000" stroke="#000000" points="212.7174,-12.7061 207.3493,-3.5719 205.8496,-14.06 212.7174,-12.7061"/>
</g>
<!-- null62 -->
<g id="node19" class="node">
<title>null62</title>
<ellipse fill="#000000" stroke="#000000" cx="229" cy="-1.8" rx="1.8" ry="1.8"/>
</g>
<!-- 67&#45;&gt;null62 -->
<g id="edge18" class="edge">
<title>67&#45;&gt;null62</title>
<path fill="none" stroke="#000000" d="M221.541,-39.6374C223.2262,-31.0891 225.1936,-21.1091 226.6846,-13.5455"/>
<polygon fill="#000000" stroke="#000000" points="230.1504,-14.06 228.6507,-3.5719 223.2826,-12.7061 230.1504,-14.06"/>
</g>
<!-- null63 -->
<g id="node20" class="node">
<title>null63</title>
<ellipse fill="#000000" stroke="#000000" cx="279" cy="-1.8" rx="1.8" ry="1.8"/>
</g>
<!-- 123&#45;&gt;null63 -->
<g id="edge19" class="edge">
<title>123&#45;&gt;null63</title>
<path fill="none" stroke="#000000" d="M286.459,-39.6374C284.7738,-31.0891 282.8064,-21.1091 281.3154,-13.5455"/>
<polygon fill="#000000" stroke="#000000" points="284.7174,-12.7061 279.3493,-3.5719 277.8496,-14.06 284.7174,-12.7061"/>
</g>
<!-- null64 -->
<g id="node21" class="node">
<title>null64</title>
<ellipse fill="#000000" stroke="#000000" cx="301" cy="-1.8" rx="1.8" ry="1.8"/>
</g>
<!-- 123&#45;&gt;null64 -->
<g id="edge20" class="edge">
<title>123&#45;&gt;null64</title>
<path fill="none" stroke="#000000" d="M293.541,-39.6374C295.2262,-31.0891 297.1936,-21.1091 298.6846,-13.5455"/>
<polygon fill="#000000" stroke="#000000" points="302.1504,-14.06 300.6507,-3.5719 295.2826,-12.7061 302.1504,-14.06"/>
</g>
</g>
</svg>
